<svg width="24" height="24" viewBox="0 0 24 24" fill="none" xmlns="http://www.w3.org/2000/svg">
<path d="M18 8H16C15.45 8 15 8.45 15 9C15 9.55 15.45 10 16 10H18V21H6V10H8C8.55 10 9 9.55 9 9C9 8.45 8.55 8 8 8H6C4.9 8 4 8.9 4 10V21C4 22.1 4.9 23 6 23H18C19.1 23 20 22.1 20 21V10C20 8.9 19.1 8 18 8Z" fill="white"/>
<path d="M12 16C12.55 16 13 15.55 13 15V5H14.79C15.24 5 15.46 4.46 15.14 4.15L12.35 1.36C12.15 1.16 11.84 1.16 11.64 1.36L8.85 4.15C8.54 4.46 8.76 5 9.21 5H11V15C11 15.55 11.45 16 12 16Z" fill="white"/>
</svg>
