<svg width="194" height="117" viewBox="0 0 194 117" fill="none" xmlns="http://www.w3.org/2000/svg">
<path fill-rule="evenodd" clip-rule="evenodd" d="M133.17 0C129.538 0 126.593 2.9443 126.593 6.57628V110.153C126.593 113.785 129.538 116.729 133.17 116.729C136.801 116.729 139.746 113.785 139.746 110.153V6.57627C139.746 2.9443 136.801 0 133.17 0ZM36.1694 21.3729C36.1694 17.7409 39.1137 14.7966 42.7457 14.7966C46.3777 14.7966 49.322 17.7409 49.322 21.3729V97C49.322 100.632 46.3777 103.576 42.7457 103.576C39.1137 103.576 36.1694 100.632 36.1694 97V21.3729ZM151.254 18.085C147.622 18.085 144.678 21.0293 144.678 24.6612V92.068C144.678 95.7 147.622 98.6443 151.254 98.6443C154.886 98.6443 157.831 95.7 157.831 92.068V24.6612C157.831 21.0293 154.886 18.085 151.254 18.085ZM115.085 26.3052C111.453 26.3052 108.509 29.2495 108.509 32.8814V83.8475C108.509 87.4795 111.453 90.4238 115.085 90.4238C118.717 90.4238 121.661 87.4795 121.661 83.8475V32.8814C121.661 29.2495 118.717 26.3052 115.085 26.3052ZM169.339 34.5254C165.707 34.5254 162.763 37.4697 162.763 41.1017V75.6271C162.763 79.2591 165.707 82.2034 169.339 82.2034C172.971 82.2034 175.915 79.2591 175.915 75.6271V41.1017C175.915 37.4697 172.971 34.5254 169.339 34.5254ZM72.3389 47.6781C72.3389 44.0461 75.2832 41.1018 78.9151 41.1018C82.5471 41.1018 85.4914 44.0461 85.4914 47.6781V70.695C85.4914 74.327 82.5471 77.2713 78.9151 77.2713C75.2832 77.2713 72.3389 74.327 72.3389 70.695V47.6781ZM97.0001 47.678C93.3681 47.678 90.4238 50.6223 90.4238 54.2543V62.4746C90.4238 66.1066 93.3681 69.0509 97.0001 69.0509C100.632 69.0509 103.576 66.1066 103.576 62.4746V54.2542C103.576 50.6223 100.632 47.678 97.0001 47.678ZM0 57.5426C0 53.9106 2.9443 50.9663 6.57627 50.9663C10.2082 50.9663 13.1525 53.9106 13.1525 57.5426V60.8307C13.1525 64.4627 10.2082 67.407 6.57627 67.407C2.9443 67.407 0 64.4627 0 60.8307V57.5426ZM180.847 57.5426C180.847 53.9106 183.792 50.9663 187.424 50.9663C191.056 50.9663 194 53.9106 194 57.5426V60.8307C194 64.4627 191.056 67.407 187.424 67.407C183.792 67.407 180.847 64.4627 180.847 60.8307V57.5426ZM18.0847 41.1017C18.0847 37.4697 21.029 34.5254 24.661 34.5254C28.293 34.5254 31.2373 37.4697 31.2373 41.1017V77.2712C31.2373 80.9031 28.293 83.8474 24.661 83.8474C21.029 83.8474 18.0847 80.9031 18.0847 77.2712V41.1017ZM54.2542 34.5255C54.2542 30.8935 57.1984 27.9492 60.8304 27.9492C64.4624 27.9492 67.4067 30.8935 67.4067 34.5255V83.8475C67.4067 87.4795 64.4624 90.4238 60.8304 90.4238C57.1984 90.4238 54.2542 87.4795 54.2542 83.8475V34.5255Z" fill="url(#paint0_linear_0_417)"/>
<defs>
<linearGradient id="paint0_linear_0_417" x1="-7.00004" y1="51" x2="120.203" y2="-42.4508" gradientUnits="userSpaceOnUse">
<stop stop-color="#14DC94"/>
<stop offset="1" stop-color="#14DCDC"/>
</linearGradient>
</defs>
</svg>
