<svg width="25" height="24" viewBox="0 0 25 24" fill="none" xmlns="http://www.w3.org/2000/svg">
<path d="M14.6666 12C14.6666 12.74 14.2666 13.38 13.6666 13.72V21C13.6666 21.55 13.2166 22 12.6666 22C12.1166 22 11.6666 21.55 11.6666 21V13.72C11.0666 13.37 10.6666 12.74 10.6666 12C10.6666 10.9 11.5666 10 12.6666 10C13.7666 10 14.6666 10.9 14.6666 12ZM11.4166 6.13001C9.14665 6.59001 7.29664 8.41001 6.80664 10.68C6.40664 12.54 6.87664 14.3 7.88664 15.62C8.23664 16.07 8.91664 16.09 9.31664 15.69L9.38664 15.62C9.72664 15.28 9.72664 14.75 9.44664 14.37C8.76664 13.47 8.46664 12.27 8.78664 11C9.13664 9.58001 10.3066 8.43001 11.7366 8.12001C14.3566 7.52001 16.6666 9.49001 16.6666 12C16.6666 12.87 16.3866 13.67 15.9066 14.32C15.6066 14.73 15.6166 15.29 15.9766 15.65C16.4166 16.09 17.1466 16.02 17.5166 15.51C18.2366 14.53 18.6666 13.31 18.6666 12C18.6666 8.28001 15.2766 5.35001 11.4166 6.13001ZM11.4966 2.07001C6.96664 2.58001 3.27664 6.25001 2.73664 10.78C2.38664 13.73 3.32664 16.45 5.05664 18.48C5.42664 18.91 6.08664 18.94 6.48664 18.54L6.53664 18.49C6.88664 18.14 6.91665 17.57 6.58664 17.19C5.02664 15.36 4.25664 12.82 4.88664 10.13C5.58664 7.12001 8.06664 4.74001 11.1066 4.16001C16.1966 3.18001 20.6666 7.08001 20.6666 12C20.6666 13.96 19.9466 15.76 18.7666 17.16C18.4266 17.56 18.4566 18.14 18.8166 18.51C19.2366 18.93 19.9266 18.9 20.3066 18.44C21.7766 16.7 22.6666 14.46 22.6666 12C22.6666 6.09001 17.5366 1.38001 11.4966 2.07001Z" fill="white" fill-opacity="0.3"/>
</svg>
