<svg width="25" height="24" viewBox="0 0 25 24" fill="none" xmlns="http://www.w3.org/2000/svg">
<path d="M15.8333 14H15.0433L14.7633 13.73C15.9633 12.33 16.5833 10.42 16.2433 8.39002C15.7733 5.61002 13.4533 3.39002 10.6533 3.05002C6.42333 2.53002 2.86333 6.09001 3.38333 10.32C3.72333 13.12 5.94333 15.44 8.72333 15.91C10.7533 16.25 12.6633 15.63 14.0633 14.43L14.3333 14.71V15.5L18.5833 19.75C18.9933 20.16 19.6633 20.16 20.0733 19.75C20.4833 19.34 20.4833 18.67 20.0733 18.26L15.8333 14ZM9.83333 14C7.34333 14 5.33333 11.99 5.33333 9.50002C5.33333 7.01002 7.34333 5.00002 9.83333 5.00002C12.3233 5.00002 14.3333 7.01002 14.3333 9.50002C14.3333 11.99 12.3233 14 9.83333 14Z" fill="white" fill-opacity="0.3"/>
</svg>
