<svg width="36" height="36" viewBox="0 0 36 36" fill="none" xmlns="http://www.w3.org/2000/svg">
<path fill-rule="evenodd" clip-rule="evenodd" d="M11 25C11 24.4477 11.4477 24 12 24H24C24.5523 24 25 24.4477 25 25C25 25.5523 24.5523 26 24 26H12C11.4477 26 11 25.5523 11 25ZM14.2929 17.2929C14.6834 16.9024 15.3166 16.9024 15.7071 17.2929L17 18.5858L17 11C17 10.4477 17.4477 10 18 10C18.5523 10 19 10.4477 19 11L19 18.5858L20.2929 17.2929C20.6834 16.9024 21.3166 16.9024 21.7071 17.2929C22.0976 17.6834 22.0976 18.3166 21.7071 18.7071L18.7071 21.7071C18.5196 21.8946 18.2652 22 18 22C17.7348 22 17.4804 21.8946 17.2929 21.7071L14.2929 18.7071C13.9024 18.3166 13.9024 17.6834 14.2929 17.2929Z" fill="white"/>
</svg>
